<svg width="50" height="50" viewBox="0 0 50 50" fill="none" xmlns="http://www.w3.org/2000/svg">
<path d="M1 50L9.30077 0H30.1504C33.8938 0 36.9457 0.528971 39.3057 1.58692C41.6656 2.64485 43.3259 4.12598 44.286 6.03027C45.2627 7.93456 45.5394 10.14 45.1162 12.6465C44.7744 14.5345 44.0746 16.2272 43.0165 17.7246C41.975 19.2057 40.6728 20.4427 39.1104 21.4355C37.5479 22.4121 35.8227 23.0958 33.9346 23.4863L33.8369 23.9747C35.8551 24.0559 37.6373 24.593 39.1835 25.586C40.7461 26.5788 41.9017 27.9704 42.6504 29.7606C43.3992 31.5348 43.57 33.6182 43.163 36.0107C42.7237 38.6962 41.6413 41.0971 39.9161 43.2129C38.207 45.3125 35.9529 46.9726 33.1533 48.1934C30.3538 49.3978 27.1149 50 23.4365 50H1ZM14.7451 40.2588H22.2158C24.8038 40.2588 26.8057 39.7623 28.2217 38.7695C29.6539 37.7604 30.5004 36.377 30.7608 34.6191C30.9724 33.3333 30.8583 32.2266 30.4189 31.2989C29.9796 30.3549 29.247 29.6304 28.2217 29.126C27.1963 28.6052 25.9023 28.3448 24.3399 28.3448H16.6494L14.7451 40.2588ZM17.9922 20.5567H24.706C26.0082 20.5567 27.2045 20.337 28.295 19.8975C29.4017 19.458 30.3132 18.8233 31.0293 17.9932C31.7617 17.1631 32.2174 16.1621 32.3966 14.9902C32.6731 13.3138 32.2907 11.9955 31.2491 11.0352C30.2073 10.0749 28.6856 9.59472 26.6837 9.59472H19.7988L17.9922 20.5567Z" fill="#B96330"/>
<path d="M14.3054 11.3279C16.0852 11.3279 17.5281 9.88505 17.5281 8.10522C17.5281 6.3254 16.0852 4.88257 14.3054 4.88257C12.5256 4.88257 11.0828 6.3254 11.0828 8.10522C11.0828 9.88505 12.5256 11.3279 14.3054 11.3279Z" fill="white"/>
<path d="M7.86011 45.7029C9.63993 45.7029 11.0828 44.26 11.0828 42.4802C11.0828 40.7004 9.63993 39.2576 7.86011 39.2576C6.08028 39.2576 4.63745 40.7004 4.63745 42.4802C4.63745 44.26 6.08028 45.7029 7.86011 45.7029Z" fill="white"/>
<path d="M49.7546 19.9216H8.93433V28.5154H49.7546V19.9216Z" fill="#B96330"/>
</svg>
