<svg width="101" height="25" viewBox="0 0 101 25" fill="none" xmlns="http://www.w3.org/2000/svg">
<path d="M24.1533 18L26.0851 6.36368H34.1988L33.8124 8.64777H28.5113L28.1249 11.0341H33.0113L32.6249 13.3239H27.7385L27.3522 15.7159H32.6533L32.2669 18H24.1533ZM35.1931 8.64777L35.5794 6.36368H45.4147L45.0283 8.64777H41.4999L39.9544 18H37.1817L38.7272 8.64777H35.1931ZM53.2627 10.1648C53.24 9.92618 53.1869 9.71595 53.1036 9.53413C53.0203 9.34852 52.9066 9.19133 52.7627 9.06254C52.6187 8.93375 52.4407 8.83716 52.2286 8.77277C52.0165 8.70459 51.7703 8.67049 51.49 8.67049C50.9294 8.67049 50.4104 8.80686 49.9331 9.07959C49.4559 9.35231 49.0525 9.75004 48.7229 10.2727C48.3934 10.7917 48.168 11.4223 48.0468 12.1648C47.9256 12.911 47.9218 13.5473 48.0354 14.0739C48.1528 14.6004 48.3877 15.0019 48.74 15.2784C49.0922 15.5549 49.5581 15.6932 50.1377 15.6932C50.6566 15.6932 51.115 15.6098 51.5127 15.4432C51.9104 15.2727 52.2324 15.0322 52.4786 14.7216C52.7286 14.411 52.8858 14.0455 52.9502 13.625L53.4672 13.6875H50.6377L50.9786 11.6364H55.99L55.7343 13.1761C55.5638 14.2178 55.1964 15.1098 54.632 15.8523C54.0714 16.5947 53.3706 17.1648 52.5297 17.5625C51.6926 17.9602 50.774 18.1591 49.774 18.1591C48.668 18.1591 47.7343 17.9186 46.9729 17.4375C46.2115 16.9564 45.6699 16.2708 45.3479 15.3807C45.0259 14.4867 44.9653 13.4261 45.1661 12.1989C45.3252 11.2443 45.6074 10.3977 46.0127 9.65913C46.4218 8.91671 46.9218 8.28792 47.5127 7.77277C48.1074 7.25762 48.7646 6.86746 49.4843 6.60231C50.204 6.33716 50.9521 6.20459 51.7286 6.20459C52.399 6.20459 53.0089 6.30118 53.5581 6.49436C54.1074 6.68754 54.5771 6.96027 54.9672 7.31254C55.3574 7.66481 55.6509 8.08337 55.8479 8.56822C56.0487 9.05307 56.1358 9.58527 56.1093 10.1648H53.2627ZM65.5624 6.36368H68.3692L67.1249 13.8693C66.981 14.7367 66.6495 15.4924 66.1306 16.1364C65.6154 16.7765 64.9582 17.2727 64.159 17.625C63.3597 17.9735 62.4696 18.1477 61.4885 18.1477C60.5037 18.1477 59.6722 17.9735 58.9942 17.625C58.3162 17.2727 57.8257 16.7765 57.5226 16.1364C57.2196 15.4924 57.1382 14.7367 57.2783 13.8693L58.5226 6.36368H61.3351L60.1249 13.625C60.0605 14.0265 60.0908 14.3845 60.2158 14.6989C60.3446 15.0095 60.5529 15.2557 60.8408 15.4375C61.1287 15.6155 61.481 15.7045 61.8976 15.7045C62.3181 15.7045 62.7026 15.6155 63.051 15.4375C63.3995 15.2557 63.6874 15.0095 63.9147 14.6989C64.1419 14.3845 64.2878 14.0265 64.3522 13.625L65.5624 6.36368ZM77.1377 10.1648C77.115 9.92618 77.0619 9.71595 76.9786 9.53413C76.8953 9.34852 76.7816 9.19133 76.6377 9.06254C76.4937 8.93375 76.3157 8.83716 76.1036 8.77277C75.8915 8.70459 75.6453 8.67049 75.365 8.67049C74.8044 8.67049 74.2854 8.80686 73.8081 9.07959C73.3309 9.35231 72.9275 9.75004 72.5979 10.2727C72.2684 10.7917 72.043 11.4223 71.9218 12.1648C71.8006 12.911 71.7968 13.5473 71.9104 14.0739C72.0278 14.6004 72.2627 15.0019 72.615 15.2784C72.9672 15.5549 73.4331 15.6932 74.0127 15.6932C74.5316 15.6932 74.99 15.6098 75.3877 15.4432C75.7854 15.2727 76.1074 15.0322 76.3536 14.7216C76.6036 14.411 76.7608 14.0455 76.8252 13.625L77.3422 13.6875H74.5127L74.8536 11.6364H79.865L79.6093 13.1761C79.4388 14.2178 79.0714 15.1098 78.507 15.8523C77.9464 16.5947 77.2456 17.1648 76.4047 17.5625C75.5676 17.9602 74.649 18.1591 73.649 18.1591C72.543 18.1591 71.6093 17.9186 70.8479 17.4375C70.0865 16.9564 69.5449 16.2708 69.2229 15.3807C68.9009 14.4867 68.8403 13.4261 69.0411 12.1989C69.2002 11.2443 69.4824 10.3977 69.8877 9.65913C70.2968 8.91671 70.7968 8.28792 71.3877 7.77277C71.9824 7.25762 72.6396 6.86746 73.3593 6.60231C74.079 6.33716 74.8271 6.20459 75.6036 6.20459C76.274 6.20459 76.8839 6.30118 77.4331 6.49436C77.9824 6.68754 78.4521 6.96027 78.8422 7.31254C79.2324 7.66481 79.5259 8.08337 79.7229 8.56822C79.9237 9.05307 80.0108 9.58527 79.9843 10.1648H77.1377ZM80.4658 18L82.3976 6.36368H85.2101L83.6647 15.7159H88.5056L88.1192 18H80.4658ZM89.1306 6.36368H92.2726L93.9204 11.233H94.0397L97.2954 6.36368H100.438L94.8976 14.1136L94.2499 18H91.4544L92.1079 14.1136L89.1306 6.36368Z" fill="black"/>
<path d="M0.306885 24L4.17052 0.727295H13.8751C15.6175 0.727295 17.038 0.973507 18.1365 1.46593C19.2349 1.95835 20.0077 2.64775 20.4546 3.53411C20.9092 4.42047 21.038 5.44699 20.841 6.61366C20.6819 7.49244 20.3562 8.28032 19.8637 8.97729C19.3789 9.66669 18.7728 10.2424 18.0456 10.7045C17.3183 11.1591 16.5153 11.4773 15.6365 11.6591L15.591 11.8864C16.5304 11.9242 17.3599 12.1742 18.0796 12.6364C18.8069 13.0985 19.3448 13.7462 19.6933 14.5795C20.0418 15.4053 20.1213 16.375 19.9319 17.4886C19.7274 18.7386 19.2236 19.8561 18.4206 20.8409C17.6251 21.8182 16.5759 22.5909 15.2728 23.1591C13.9698 23.7197 12.4622 24 10.7501 24H0.306885ZM6.70462 19.4659H10.1819C11.3865 19.4659 12.3183 19.2348 12.9774 18.7727C13.644 18.303 14.038 17.6591 14.1592 16.8409C14.2577 16.2424 14.2046 15.7273 14.0001 15.2955C13.7956 14.8561 13.4546 14.5189 12.9774 14.2841C12.5001 14.0417 11.8978 13.9205 11.1706 13.9205H7.59098L6.70462 19.4659ZM8.21598 10.2955H11.341C11.9471 10.2955 12.5039 10.1932 13.0115 9.98866C13.5266 9.78411 13.9509 9.48866 14.2842 9.10229C14.6251 8.71593 14.8372 8.25002 14.9206 7.70456C15.0493 6.92426 14.8713 6.31063 14.3865 5.86366C13.9016 5.41669 13.1933 5.1932 12.2615 5.1932H9.05689L8.21598 10.2955Z" fill="#B96330"/>
<path d="M6.5 6C7.32843 6 8 5.32843 8 4.5C8 3.67157 7.32843 3 6.5 3C5.67157 3 5 3.67157 5 4.5C5 5.32843 5.67157 6 6.5 6Z" fill="white"/>
<path d="M3.5 22C4.32843 22 5 21.3284 5 20.5C5 19.6716 4.32843 19 3.5 19C2.67157 19 2 19.6716 2 20.5C2 21.3284 2.67157 22 3.5 22Z" fill="white"/>
<path d="M23 10H4V14H23V10Z" fill="#B96330"/>
</svg>
